<?xml version="1.0" standalone="no"?>
<!DOCTYPE svg PUBLIC "-//W3C//DTD SVG 20010904//EN"
 "http://www.w3.org/TR/2001/REC-SVG-20010904/DTD/svg10.dtd">
<svg version="1.0" xmlns="http://www.w3.org/2000/svg"
 width="310.000000pt" height="310.000000pt" viewBox="0 0 310.000000 310.000000"
 preserveAspectRatio="xMidYMid meet">
<metadata>
Created by potrace 1.11, written by Peter Selinger 2001-2013
</metadata>
<g transform="translate(0.000000,310.000000) scale(0.100000,-0.100000)"
fill="#000000" stroke="none">
<path d="M460 2598 c0 -10 4 -18 10 -18 25 0 48 -92 36 -150 -3 -14 -8 -41
-11 -60 -4 -19 -12 -38 -18 -42 -9 -6 -8 -8 1 -8 7 0 10 -5 7 -10 -7 -11 -16
-62 -18 -97 -1 -13 -4 -23 -8 -23 -6 0 -7 -7 -12 -77 -1 -18 -5 -33 -9 -33 -4
0 -5 -9 -3 -20 2 -11 -1 -20 -7 -20 -7 0 -7 -4 1 -13 8 -10 7 -17 -2 -26 -6
-6 -12 -20 -13 -29 0 -14 -13 -86 -20 -114 -1 -5 -2 -22 -3 -39 0 -16 -5 -28
-9 -25 -5 3 -8 -11 -7 -30 1 -18 -1 -34 -4 -34 -6 0 -9 -20 -14 -87 -1 -13 -6
-23 -10 -23 -5 0 -6 -4 -2 -9 3 -5 2 -12 -3 -15 -5 -3 -7 -19 -6 -35 1 -17 -2
-31 -7 -31 -5 0 -9 -7 -9 -15 0 -8 -4 -15 -10 -15 -5 0 -10 -7 -10 -15 0 -8
-8 -15 -17 -15 -10 0 -25 -6 -33 -13 -17 -14 -26 -42 -10 -32 5 3 10 1 10 -6
0 -6 8 -9 20 -6 11 3 20 1 20 -5 0 -5 4 -6 10 -3 5 3 19 1 30 -5 15 -8 20 -8
20 2 0 9 3 9 12 0 7 -7 21 -12 33 -12 12 0 27 -6 34 -12 11 -11 12 -10 6 1 -6
10 -4 12 6 5 16 -10 33 -14 71 -16 15 0 26 -4 24 -7 -2 -3 17 -7 42 -9 25 -1
58 -9 73 -16 24 -12 27 -12 22 2 -4 10 -2 13 5 8 20 -12 13 19 -9 42 -11 13
-21 31 -22 42 -1 11 -4 20 -7 20 -3 0 -6 11 -6 25 0 14 3 25 6 25 3 0 6 10 7
23 0 12 4 36 7 52 4 17 9 41 11 55 2 13 11 29 19 36 9 6 16 15 16 20 0 5 16
24 35 41 19 18 35 37 35 43 0 5 7 10 16 10 8 0 13 4 9 9 -3 6 4 15 15 21 16 9
20 8 21 -7 1 -10 1 -21 0 -25 0 -5 4 -8 10 -8 5 0 8 -4 4 -9 -3 -5 0 -13 6
-17 8 -4 7 -9 -2 -15 -12 -7 -12 -9 0 -9 7 0 11 -6 7 -15 -3 -8 -1 -15 4 -15
6 0 10 -8 10 -17 0 -10 7 -38 16 -63 9 -25 16 -53 17 -62 1 -10 5 -18 9 -18 4
0 7 -3 7 -7 -3 -18 14 -73 23 -73 5 0 7 -3 5 -7 -3 -5 0 -19 6 -33 5 -14 11
-29 12 -35 2 -5 4 -17 6 -25 2 -8 6 -17 9 -20 3 -3 11 -16 18 -29 11 -19 11
-22 0 -16 -8 4 -7 1 2 -7 8 -7 16 -21 18 -31 2 -9 15 -41 30 -70 14 -28 25
-55 24 -59 -1 -5 3 -8 8 -8 5 0 9 -3 9 -7 -3 -20 2 -34 11 -28 5 3 10 -1 10
-9 0 -16 36 -83 57 -104 6 -6 15 -21 18 -32 3 -11 11 -20 16 -20 6 0 7 -4 4
-10 -3 -5 -2 -10 4 -10 5 0 12 -8 15 -18 3 -10 21 -34 40 -54 19 -20 32 -39
29 -42 -4 -3 2 -6 12 -6 10 0 16 -3 12 -6 -3 -4 9 -22 28 -40 19 -19 35 -38
35 -44 0 -5 3 -9 8 -8 4 2 22 -12 41 -30 19 -17 38 -32 43 -32 5 0 6 -5 3 -10
-4 -6 -3 -10 2 -9 20 3 34 -2 28 -11 -3 -5 3 -10 14 -10 12 0 21 -4 21 -8 0
-11 74 -52 94 -52 10 0 14 -4 11 -10 -6 -9 -1 -11 38 -14 6 -1 15 -5 18 -9 3
-4 16 -9 27 -10 12 -1 22 -4 22 -7 0 -8 -1 -8 128 -14 58 -3 102 -1 102 4 0 5
6 7 13 4 8 -3 25 0 40 5 18 7 27 7 31 -2 2 -7 5 -4 5 6 1 10 5 16 9 13 5 -3
21 1 35 9 15 8 30 14 32 15 3 0 20 8 39 17 27 12 38 27 49 60 12 37 12 45 1
50 -7 2 -19 1 -26 -3 -13 -9 -20 -10 -73 -20 -47 -8 -139 -12 -150 -5 -10 5
-16 6 -68 9 -16 1 -26 6 -23 10 2 4 -5 9 -17 9 -27 3 -107 43 -107 55 0 5 -5
6 -10 3 -6 -3 -13 1 -16 9 -3 9 -10 13 -15 10 -5 -3 -12 2 -15 10 -3 9 -10 13
-15 10 -5 -3 -9 2 -9 10 0 9 -4 16 -10 16 -13 0 -90 77 -90 90 0 6 -4 8 -10 5
-5 -3 -10 -2 -10 3 0 4 -9 18 -20 30 -12 12 -19 22 -16 22 3 0 -6 12 -19 26
-14 15 -25 33 -25 40 0 8 -4 14 -9 14 -5 0 -13 9 -16 20 -4 11 -11 18 -16 15
-5 -3 -6 1 -3 9 3 9 1 16 -5 16 -6 0 -11 7 -11 15 0 8 -4 15 -10 15 -5 0 -10
9 -10 20 0 11 -5 20 -11 20 -5 0 -7 5 -4 10 3 6 2 10 -4 10 -6 0 -13 11 -17
25 -3 14 -11 25 -17 25 -6 0 -7 3 -4 7 4 3 2 12 -4 20 -6 7 -8 13 -5 13 4 0 0
7 -9 16 -9 9 -14 23 -11 31 3 8 2 12 -2 9 -4 -2 -14 10 -21 27 -7 18 -19 44
-27 60 -8 15 -12 27 -8 27 3 0 1 6 -5 13 -6 8 -8 17 -4 20 3 4 1 7 -6 7 -7 0
-9 5 -6 10 3 6 1 10 -6 10 -7 0 -9 3 -6 7 4 3 2 12 -5 20 -6 7 -8 16 -5 19 3
4 0 13 -8 20 -8 8 -12 21 -9 29 4 8 1 15 -5 15 -6 0 -11 11 -11 25 0 14 -5 25
-11 25 -5 0 -7 5 -4 10 3 6 0 10 -7 10 -9 0 -9 3 2 10 11 7 11 10 2 10 -7 0
-10 5 -7 10 3 6 2 10 -3 10 -5 0 -9 7 -10 15 -1 8 -3 22 -4 30 -1 8 -6 15 -12
15 -6 0 -5 4 2 9 11 7 11 9 -2 14 -9 4 -13 13 -10 21 3 8 0 17 -5 21 -6 3 -9
11 -6 16 4 5 0 9 -7 9 -9 0 -9 3 2 10 10 6 11 10 3 10 -7 0 -12 3 -12 8 1 4 0
9 -1 12 -1 3 -3 12 -5 20 -3 8 -6 22 -8 30 -2 8 -7 22 -10 30 -3 8 -12 42 -20
75 -14 59 -14 60 10 83 13 12 22 22 19 22 -3 0 7 12 22 28 15 15 43 45 62 67
19 22 38 39 43 37 5 -1 6 2 2 8 -3 5 -2 10 3 10 5 0 15 11 22 25 7 13 17 22
22 19 4 -3 8 2 8 11 0 8 11 21 25 27 14 6 25 16 25 21 0 6 3 8 6 5 3 -4 16 -1
29 6 13 7 39 12 58 12 25 -1 33 3 34 16 1 10 -2 16 -8 13 -5 -4 -9 -1 -9 6 0
6 -8 9 -20 6 -11 -3 -20 -1 -20 3 0 5 -8 7 -17 5 -10 -1 -29 3 -43 9 -14 6
-38 11 -55 11 -16 0 -36 7 -43 15 -10 11 -12 11 -6 1 6 -11 2 -13 -17 -7 -13
4 -41 10 -61 13 -34 4 -38 2 -38 -16 0 -12 5 -21 10 -21 6 0 10 -10 10 -22 -1
-25 -32 -68 -49 -68 -6 0 -10 -3 -9 -8 2 -4 -9 -21 -24 -37 -16 -16 -28 -33
-28 -38 0 -4 -4 -5 -10 -2 -5 3 -10 2 -10 -4 0 -5 -10 -21 -22 -34 -13 -14
-48 -52 -78 -86 -30 -34 -74 -82 -97 -108 -24 -26 -43 -51 -43 -54 0 -4 -6 -9
-14 -12 -15 -6 -15 -7 1 73 9 46 10 50 12 53 1 1 4 18 6 37 3 19 7 46 11 60 8
34 12 61 13 88 1 13 4 21 9 19 4 -3 8 9 8 26 3 57 8 87 16 87 4 0 7 3 6 8 -4
11 44 62 59 62 7 0 13 5 13 11 0 5 4 8 9 5 5 -3 12 1 15 10 3 8 2 12 -4 9 -6
-3 -10 -1 -10 4 0 6 -3 10 -7 10 -5 -1 -10 0 -13 1 -9 3 -45 9 -75 13 -17 2
-36 7 -43 11 -7 4 -12 5 -12 1 0 -3 -10 -1 -21 6 -17 9 -20 8 -13 -3 6 -10 5
-11 -7 -2 -8 6 -22 10 -31 9 -10 -2 -18 0 -18 4 0 8 -19 11 -62 11 -16 0 -28
4 -28 8 0 5 -10 8 -22 7 -13 -1 -27 0 -33 3 -5 3 -22 6 -37 7 -21 1 -28 -3
-28 -17z"/>
<path d="M2550 2291 c0 -5 6 -21 14 -36 8 -15 12 -37 9 -49 -2 -11 -6 -34 -8
-51 -1 -16 -4 -30 -5 -30 -1 0 -3 -11 -6 -25 -2 -14 -6 -38 -9 -55 -3 -16 -8
-45 -11 -64 -2 -19 -6 -37 -9 -41 -2 -3 -7 -29 -11 -56 -3 -27 -8 -58 -11 -69
-2 -11 -6 -33 -9 -50 -2 -16 -7 -37 -10 -45 -3 -8 -7 -31 -10 -50 -3 -35 -8
-58 -20 -115 -4 -16 -8 -39 -8 -50 -1 -11 -4 -24 -7 -30 -3 -5 -6 -25 -8 -44
-1 -19 -7 -41 -13 -48 -7 -8 -7 -13 0 -13 5 0 8 -9 5 -20 -3 -11 -10 -20 -17
-20 -6 0 -4 -5 4 -10 8 -5 10 -10 5 -10 -6 0 -11 -8 -12 -17 -5 -43 -11 -88
-13 -88 -1 0 -4 -11 -6 -25 -2 -13 -8 -27 -12 -30 -4 -3 -8 -14 -8 -25 0 -11
-5 -19 -12 -18 -6 2 -9 -3 -6 -11 3 -7 -2 -20 -10 -29 -8 -8 -12 -17 -9 -21 3
-3 -2 -8 -11 -12 -9 -3 -16 -13 -16 -21 0 -8 -4 -11 -10 -8 -5 3 -10 0 -10 -8
0 -7 -11 -19 -25 -25 -14 -6 -25 -16 -25 -22 0 -5 -3 -9 -7 -9 -5 1 -24 -4
-43 -12 -19 -7 -38 -12 -42 -11 -5 1 -8 -2 -8 -6 0 -4 -10 -8 -22 -9 -13 0
-34 -2 -48 -3 -40 -3 -121 10 -160 26 -19 8 -36 15 -38 14 -2 -1 -12 8 -21 19
-10 11 -21 18 -25 14 -3 -3 -6 1 -6 10 0 8 -8 18 -18 21 -9 3 -23 16 -29 28
-29 57 -46 94 -46 106 0 6 -4 12 -8 12 -4 0 -8 8 -8 18 -1 9 -2 50 -4 90 -1
41 1 76 5 78 5 3 6 9 3 14 -3 5 -1 11 5 15 6 4 8 11 5 16 -4 5 -2 9 4 9 6 0 8
7 5 15 -4 8 -1 15 6 15 6 0 9 4 6 9 -11 17 96 159 115 154 5 -2 9 1 9 6 0 5
12 16 26 26 15 9 23 12 19 5 -4 -7 4 -5 17 4 14 9 28 13 31 9 4 -3 7 -2 7 4 0
9 65 9 105 0 11 -3 27 -7 35 -9 8 -1 30 -17 48 -35 17 -18 32 -29 32 -25 1 9
43 -69 48 -88 2 -8 4 -24 5 -35 2 -11 6 -26 10 -32 5 -7 4 -13 -2 -13 -5 0 -8
-9 -6 -20 2 -11 0 -20 -6 -20 -5 0 -8 -4 -6 -9 4 -18 -38 -71 -56 -71 -10 0
-16 -4 -13 -9 4 -5 -8 -12 -25 -16 -51 -11 -79 -13 -79 -4 0 5 -7 6 -15 3 -8
-4 -15 -1 -15 5 0 6 -6 11 -13 11 -7 0 -19 9 -27 20 -19 27 -25 25 -39 -7 -17
-45 -21 -83 -8 -83 9 0 8 -3 -1 -8 -9 -7 -8 -13 8 -27 11 -10 17 -22 14 -26
-3 -5 2 -9 10 -9 9 0 16 -3 16 -7 0 -11 51 -33 61 -27 5 3 9 2 9 -3 0 -4 25
-8 55 -8 30 0 55 3 55 7 0 5 3 7 8 6 30 -6 142 87 142 119 0 7 4 13 8 13 5 0
9 6 10 13 1 16 10 52 13 52 7 0 5 136 -2 141 -5 3 -7 9 -4 14 3 5 0 20 -7 32
-7 13 -13 25 -13 28 -4 18 -30 60 -37 60 -5 0 -6 5 -3 10 3 6 1 10 -5 10 -6 0
-22 11 -35 25 -14 13 -42 32 -62 41 -21 10 -40 20 -43 23 -6 7 -21 11 -55 13
-14 1 -25 5 -25 9 0 10 -154 -1 -167 -11 -2 -2 -11 -3 -20 -4 -17 -1 -31 -8
-108 -49 -40 -22 -126 -107 -119 -118 3 -5 1 -9 -4 -9 -6 0 -19 -18 -31 -40
-11 -22 -19 -40 -17 -40 2 0 -4 -22 -14 -49 -11 -31 -14 -54 -9 -64 6 -9 6
-18 0 -21 -6 -4 -8 -111 -1 -111 1 0 4 -13 6 -29 7 -41 64 -157 80 -163 8 -3
12 -9 9 -14 -3 -4 8 -18 24 -30 17 -12 28 -26 25 -31 -3 -4 2 -8 10 -8 9 0 16
-4 16 -10 0 -5 7 -10 15 -10 8 0 15 -4 15 -10 0 -5 7 -10 15 -10 8 0 15 -5 15
-11 0 -5 5 -7 10 -4 6 3 10 1 10 -5 0 -6 4 -9 9 -5 5 3 17 -2 25 -11 9 -8 16
-13 16 -10 0 3 18 -1 41 -9 23 -8 45 -12 50 -9 5 3 9 2 9 -3 0 -4 32 -8 70 -8
39 0 70 2 70 5 0 3 15 6 33 7 31 3 69 9 75 13 1 2 5 3 10 4 4 1 13 5 20 9 6 5
12 6 12 2 0 -3 18 6 41 21 23 14 38 20 33 12 -8 -13 19 9 77 63 15 15 31 24
34 21 3 -3 5 0 5 7 0 15 25 42 34 36 3 -3 4 -2 1 1 -2 4 4 19 14 33 24 34 54
100 54 117 0 8 4 14 9 14 5 0 6 5 3 10 -3 6 -3 16 2 23 4 6 9 22 10 35 6 44
11 77 13 77 1 0 3 11 5 25 2 14 6 39 10 55 4 17 8 42 9 57 1 14 9 34 17 44 12
15 12 17 0 9 -11 -6 -13 -4 -7 11 5 10 10 35 13 54 2 19 9 38 16 42 7 4 8 8 2
8 -5 0 -10 11 -10 24 0 13 3 22 6 20 6 -3 20 74 22 124 1 12 4 22 9 22 4 0 5
7 2 15 -4 8 -2 21 3 28 6 6 9 24 8 40 -1 15 1 27 5 27 4 0 8 17 9 38 1 20 3
43 3 50 1 6 4 12 7 12 3 0 7 12 7 28 1 15 4 43 8 62 4 19 9 50 12 68 4 17 10
32 16 32 5 0 7 4 3 9 -3 5 3 12 14 16 30 9 35 34 6 29 -13 -2 -27 0 -30 6 -3
5 -22 10 -41 10 -19 0 -34 4 -34 8 0 4 -24 7 -54 7 -30 0 -52 3 -49 8 2 4 -1
7 -6 7 -6 0 -11 -4 -11 -9z"/>
</g>
</svg>
